<svg width="32" height="32" viewBox="0 0 32 32" fill="none" xmlns="http://www.w3.org/2000/svg">
<path d="M12.6581 1.37903C11.7554 1.36978 10.9837 1.87422 10.3437 2.71297C6.82562 2.64259 4.24374 6.81278 4.27149 12.7892L8.21874 9.04503C8.07449 10.1425 8.00187 11.2613 8.00187 12.3321C8.00187 12.6293 8.00874 12.9252 8.02343 13.2168C6.62437 13.3007 5.63905 14.6212 5.6153 16.7656C5.58262 19.7073 7.37093 23.0856 9.60937 24.3106C10.115 24.5873 10.6 24.73 11.0487 24.7518C11.1752 26.3205 11.3766 28.3314 10.795 29.58C10.0931 31.0868 12.5021 31.2643 12.7597 29.8398C13.5583 31.1841 15.5997 29.9405 14.4785 28.8613C13.5147 27.9338 12.9332 25.895 12.4297 24.3633C12.7829 24.1151 13.0766 23.7548 13.2949 23.293C14.032 23.651 14.817 23.8457 15.6327 23.8457C16.4479 23.8457 17.234 23.6525 17.9706 23.2951C18.1889 23.7561 18.4831 24.1155 18.8359 24.3633C18.3324 25.8952 17.7509 27.9338 16.7872 28.8615C15.6658 29.9405 17.7073 31.1842 18.5059 29.84C18.7636 31.2643 21.1725 31.0868 20.4707 29.5802C19.8891 28.3316 20.0905 26.3207 20.2169 24.752C20.6657 24.7302 21.1507 24.5875 21.6563 24.3108C23.8947 23.0858 25.6831 19.7075 25.6504 16.7658C25.6267 14.6204 24.6423 13.2998 23.2423 13.217C23.2569 12.9254 23.2637 12.6294 23.2637 12.3322C23.2637 11.2615 23.1914 10.1425 23.0469 9.04509L26.9941 12.7892C27.0218 6.81166 24.4391 2.64103 20.9199 2.71291C19.6627 1.06772 17.8996 0.719531 15.6327 2.98641C14.5189 1.87266 13.5279 1.38797 12.6581 1.37903Z" fill="#BFBFBF"/>
</svg>
